<mxfile host="app.diagrams.net" modified="2023-10-18T16:30:50.648Z" agent="Mozilla/5.0 (Windows NT 10.0; Win64; x64) AppleWebKit/537.36 (KHTML, like Gecko) Chrome/118.0.0.0 Safari/537.36" etag="gXIvnyTG3NeX7SLkmjSa" version="22.0.4" type="device">
  <diagram name="Page-1" id="b520641d-4fe3-3701-9064-5fc419738815">
    <mxGraphModel dx="2262" dy="2362" grid="1" gridSize="11" guides="1" tooltips="1" connect="1" arrows="1" fold="1" page="1" pageScale="1" pageWidth="1654" pageHeight="1169" background="none" math="0" shadow="0">
      <root>
        <mxCell id="0" />
        <mxCell id="1" parent="0" />
        <mxCell id="byzspxksrCd8A4GHxwi9-51" value="" style="rounded=0;whiteSpace=wrap;html=1;fillColor=#c7c7c7;" parent="1" vertex="1">
          <mxGeometry x="242" y="-440" width="1782" height="1078" as="geometry" />
        </mxCell>
        <mxCell id="byzspxksrCd8A4GHxwi9-53" value="" style="rounded=0;whiteSpace=wrap;html=1;" parent="1" vertex="1">
          <mxGeometry x="275" y="-308" width="1705" height="913" as="geometry" />
        </mxCell>
        <mxCell id="byzspxksrCd8A4GHxwi9-52" value="" style="rounded=0;whiteSpace=wrap;html=1;fillColor=#d1d1d1;" parent="1" vertex="1">
          <mxGeometry x="297" y="-172" width="1452" height="612" as="geometry" />
        </mxCell>
        <mxCell id="byzspxksrCd8A4GHxwi9-50" value="" style="rounded=0;whiteSpace=wrap;html=1;" parent="1" vertex="1">
          <mxGeometry x="429" y="-66" width="1287" height="396" as="geometry" />
        </mxCell>
        <mxCell id="byzspxksrCd8A4GHxwi9-5" value="User EOA" style="ellipse;whiteSpace=wrap;html=1;aspect=fixed;" parent="1" vertex="1">
          <mxGeometry x="1096" y="-154" width="80" height="80" as="geometry" />
        </mxCell>
        <mxCell id="byzspxksrCd8A4GHxwi9-6" style="edgeStyle=none;html=1;labelBackgroundColor=none;startFill=0;startSize=8;endFill=1;endSize=8;fontFamily=Verdana;fontSize=12;exitX=0.5;exitY=1;exitDx=0;exitDy=0;" parent="1" source="byzspxksrCd8A4GHxwi9-5" edge="1">
          <mxGeometry relative="1" as="geometry">
            <mxPoint x="1135.4099999999999" y="36" as="sourcePoint" />
            <mxPoint x="1135" y="-22" as="targetPoint" />
          </mxGeometry>
        </mxCell>
        <mxCell id="byzspxksrCd8A4GHxwi9-7" value="AutomatedVaultERC4626" style="swimlane;html=1;fontStyle=0;childLayout=stackLayout;horizontal=1;startSize=26;fillColor=#e0e0e0;horizontalStack=0;resizeParent=1;resizeLast=0;collapsible=1;marginBottom=0;swimlaneFillColor=#ffffff;align=center;rounded=1;shadow=0;comic=0;labelBackgroundColor=none;strokeWidth=1;fontFamily=Verdana;fontSize=12" parent="1" vertex="1">
          <mxGeometry x="1056" y="181.5" width="160" height="110" as="geometry" />
        </mxCell>
        <mxCell id="byzspxksrCd8A4GHxwi9-13" style="edgeStyle=none;html=1;labelBackgroundColor=none;startFill=0;startSize=8;endFill=1;endSize=8;fontFamily=Verdana;fontSize=12;exitX=0.5;exitY=1;exitDx=0;exitDy=0;entryX=0.5;entryY=0;entryDx=0;entryDy=0;" parent="1" target="byzspxksrCd8A4GHxwi9-7" edge="1">
          <mxGeometry relative="1" as="geometry">
            <mxPoint x="1136.41" y="88" as="sourcePoint" />
            <mxPoint x="1135.41" y="140" as="targetPoint" />
          </mxGeometry>
        </mxCell>
        <mxCell id="byzspxksrCd8A4GHxwi9-14" value="AutomatedVaultFactory" style="swimlane;html=1;fontStyle=0;childLayout=stackLayout;horizontal=1;startSize=26;fillColor=#e0e0e0;horizontalStack=0;resizeParent=1;resizeLast=0;collapsible=1;marginBottom=0;swimlaneFillColor=#ffffff;align=center;rounded=1;shadow=0;comic=0;labelBackgroundColor=none;strokeWidth=1;fontFamily=Verdana;fontSize=12" parent="1" vertex="1">
          <mxGeometry x="1056" y="-22" width="160" height="110" as="geometry" />
        </mxCell>
        <mxCell id="byzspxksrCd8A4GHxwi9-15" value="&lt;font style=&quot;font-size: 12px;&quot;&gt;1&lt;/font&gt;" style="text;html=1;strokeColor=none;fillColor=none;spacingLeft=4;spacingRight=4;whiteSpace=wrap;overflow=hidden;rotatable=0;points=[[0,0.5],[1,0.5]];portConstraint=eastwest;fontSize=12;" parent="1" vertex="1">
          <mxGeometry x="1133" y="88" width="22" height="22" as="geometry" />
        </mxCell>
        <mxCell id="byzspxksrCd8A4GHxwi9-16" value="&lt;font style=&quot;font-size: 13px;&quot;&gt;n&lt;/font&gt;" style="text;html=1;strokeColor=none;fillColor=none;spacingLeft=4;spacingRight=4;whiteSpace=wrap;overflow=hidden;rotatable=0;points=[[0,0.5],[1,0.5]];portConstraint=eastwest;fontSize=13;" parent="1" vertex="1">
          <mxGeometry x="1133" y="143" width="22" height="22" as="geometry" />
        </mxCell>
        <mxCell id="byzspxksrCd8A4GHxwi9-18" value="User EOA" style="ellipse;whiteSpace=wrap;html=1;aspect=fixed;" parent="1" vertex="1">
          <mxGeometry x="1097" y="344.5" width="80" height="80" as="geometry" />
        </mxCell>
        <mxCell id="byzspxksrCd8A4GHxwi9-20" value="" style="endArrow=classic;startArrow=classic;html=1;rounded=0;exitX=0.5;exitY=1;exitDx=0;exitDy=0;entryX=0.5;entryY=0;entryDx=0;entryDy=0;" parent="1" source="byzspxksrCd8A4GHxwi9-7" target="byzspxksrCd8A4GHxwi9-18" edge="1">
          <mxGeometry width="50" height="50" relative="1" as="geometry">
            <mxPoint x="1216" y="277.5" as="sourcePoint" />
            <mxPoint x="1309" y="277.5" as="targetPoint" />
          </mxGeometry>
        </mxCell>
        <mxCell id="byzspxksrCd8A4GHxwi9-22" value="StrategyWorker" style="swimlane;html=1;fontStyle=0;childLayout=stackLayout;horizontal=1;startSize=26;fillColor=#e0e0e0;horizontalStack=0;resizeParent=1;resizeLast=0;collapsible=1;marginBottom=0;swimlaneFillColor=#ffffff;align=center;rounded=1;shadow=0;comic=0;labelBackgroundColor=none;strokeWidth=1;fontFamily=Verdana;fontSize=12" parent="1" vertex="1">
          <mxGeometry x="758" y="181.5" width="160" height="110" as="geometry" />
        </mxCell>
        <mxCell id="byzspxksrCd8A4GHxwi9-26" value="Controller" style="swimlane;html=1;fontStyle=0;childLayout=stackLayout;horizontal=1;startSize=26;fillColor=#e0e0e0;horizontalStack=0;resizeParent=1;resizeLast=0;collapsible=1;marginBottom=0;swimlaneFillColor=#ffffff;align=center;rounded=1;shadow=0;comic=0;labelBackgroundColor=none;strokeWidth=1;fontFamily=Verdana;fontSize=12" parent="1" vertex="1">
          <mxGeometry x="734.5" y="-22" width="209" height="110" as="geometry" />
        </mxCell>
        <mxCell id="byzspxksrCd8A4GHxwi9-30" value="ExternalDexRouter" style="swimlane;html=1;fontStyle=0;childLayout=stackLayout;horizontal=1;startSize=26;fillColor=#e0e0e0;horizontalStack=0;resizeParent=1;resizeLast=0;collapsible=1;marginBottom=0;swimlaneFillColor=#ffffff;align=center;rounded=1;shadow=0;comic=0;labelBackgroundColor=none;strokeWidth=1;fontFamily=Verdana;fontSize=12" parent="1" vertex="1">
          <mxGeometry x="758" y="462" width="160" height="110" as="geometry" />
        </mxCell>
        <mxCell id="byzspxksrCd8A4GHxwi9-34" value="ProtocolTreasuryVault" style="swimlane;html=1;fontStyle=0;childLayout=stackLayout;horizontal=1;startSize=26;fillColor=#e0e0e0;horizontalStack=0;resizeParent=1;resizeLast=0;collapsible=1;marginBottom=0;swimlaneFillColor=#ffffff;align=center;rounded=1;shadow=0;comic=0;labelBackgroundColor=none;strokeWidth=1;fontFamily=Verdana;fontSize=12" parent="1" vertex="1">
          <mxGeometry x="484" y="176" width="160" height="110" as="geometry" />
        </mxCell>
        <mxCell id="byzspxksrCd8A4GHxwi9-38" value="" style="endArrow=classic;startArrow=classic;html=1;rounded=0;exitX=1;exitY=0.5;exitDx=0;exitDy=0;entryX=0;entryY=0.5;entryDx=0;entryDy=0;" parent="1" source="byzspxksrCd8A4GHxwi9-22" target="byzspxksrCd8A4GHxwi9-7" edge="1">
          <mxGeometry width="50" height="50" relative="1" as="geometry">
            <mxPoint x="935" y="193" as="sourcePoint" />
            <mxPoint x="985" y="143" as="targetPoint" />
          </mxGeometry>
        </mxCell>
        <mxCell id="byzspxksrCd8A4GHxwi9-44" style="edgeStyle=none;html=1;labelBackgroundColor=none;startFill=0;startSize=8;endFill=1;endSize=8;fontFamily=Verdana;fontSize=12;exitX=0.5;exitY=1;exitDx=0;exitDy=0;" parent="1" source="stzLwv41HhVOiGjMC_Pm-5" edge="1">
          <mxGeometry relative="1" as="geometry">
            <mxPoint x="839" y="-74" as="sourcePoint" />
            <mxPoint x="838.5" y="-22" as="targetPoint" />
          </mxGeometry>
        </mxCell>
        <mxCell id="byzspxksrCd8A4GHxwi9-45" value="" style="endArrow=classic;html=1;rounded=0;entryX=0.5;entryY=0;entryDx=0;entryDy=0;exitX=0.5;exitY=1;exitDx=0;exitDy=0;" parent="1" source="byzspxksrCd8A4GHxwi9-26" target="byzspxksrCd8A4GHxwi9-22" edge="1">
          <mxGeometry width="50" height="50" relative="1" as="geometry">
            <mxPoint x="825" y="88" as="sourcePoint" />
            <mxPoint x="985" y="110" as="targetPoint" />
          </mxGeometry>
        </mxCell>
        <mxCell id="byzspxksrCd8A4GHxwi9-46" value="" style="endArrow=classic;html=1;rounded=0;" parent="1" edge="1">
          <mxGeometry width="50" height="50" relative="1" as="geometry">
            <mxPoint x="759" y="231" as="sourcePoint" />
            <mxPoint x="649" y="231" as="targetPoint" />
          </mxGeometry>
        </mxCell>
        <mxCell id="byzspxksrCd8A4GHxwi9-47" value="" style="endArrow=classic;startArrow=classic;html=1;rounded=0;dashed=1;entryX=0.5;entryY=0;entryDx=0;entryDy=0;exitX=0.5;exitY=1;exitDx=0;exitDy=0;" parent="1" source="byzspxksrCd8A4GHxwi9-22" target="byzspxksrCd8A4GHxwi9-30" edge="1">
          <mxGeometry width="50" height="50" relative="1" as="geometry">
            <mxPoint x="836" y="308" as="sourcePoint" />
            <mxPoint x="838" y="374" as="targetPoint" />
          </mxGeometry>
        </mxCell>
        <mxCell id="byzspxksrCd8A4GHxwi9-48" value="Gelato Automate" style="label;whiteSpace=wrap;html=1;image=img/clipart/Gear_128x128.png" parent="1" vertex="1">
          <mxGeometry x="615.5" y="-416.37" width="188" height="60" as="geometry" />
        </mxCell>
        <mxCell id="byzspxksrCd8A4GHxwi9-54" value="&lt;font style=&quot;font-size: 15px;&quot;&gt;Gelato Network&amp;nbsp;&lt;br&gt;&lt;/font&gt;" style="text;html=1;strokeColor=none;fillColor=none;spacingLeft=4;spacingRight=4;whiteSpace=wrap;overflow=hidden;rotatable=0;points=[[0,0.5],[1,0.5]];portConstraint=eastwest;fontSize=15;fontStyle=1" parent="1" vertex="1">
          <mxGeometry x="242" y="-440" width="176" height="33" as="geometry" />
        </mxCell>
        <mxCell id="byzspxksrCd8A4GHxwi9-55" value="&lt;font style=&quot;font-size: 15px;&quot;&gt;External Protocol Contracts&lt;/font&gt;" style="text;html=1;strokeColor=none;fillColor=none;spacingLeft=4;spacingRight=4;whiteSpace=wrap;overflow=hidden;rotatable=0;points=[[0,0.5],[1,0.5]];portConstraint=eastwest;fontSize=15;fontStyle=1" parent="1" vertex="1">
          <mxGeometry x="275" y="-308" width="231" height="33" as="geometry" />
        </mxCell>
        <mxCell id="byzspxksrCd8A4GHxwi9-56" value="&lt;font style=&quot;font-size: 15px;&quot;&gt;EOA Interactions&lt;/font&gt;" style="text;html=1;strokeColor=none;fillColor=none;spacingLeft=4;spacingRight=4;whiteSpace=wrap;overflow=hidden;rotatable=0;points=[[0,0.5],[1,0.5]];portConstraint=eastwest;fontSize=15;fontStyle=1" parent="1" vertex="1">
          <mxGeometry x="308" y="-172" width="231" height="33" as="geometry" />
        </mxCell>
        <mxCell id="byzspxksrCd8A4GHxwi9-57" value="&lt;font style=&quot;font-size: 15px;&quot;&gt;Protocol Contracts&lt;/font&gt;" style="text;html=1;strokeColor=none;fillColor=none;spacingLeft=4;spacingRight=4;whiteSpace=wrap;overflow=hidden;rotatable=0;points=[[0,0.5],[1,0.5]];portConstraint=eastwest;fontSize=15;fontStyle=1" parent="1" vertex="1">
          <mxGeometry x="429" y="-66" width="231" height="33" as="geometry" />
        </mxCell>
        <mxCell id="t4ZX40rrtwbt4coiygym-1" value="Protocol EOA" style="ellipse;whiteSpace=wrap;html=1;aspect=fixed;" parent="1" vertex="1">
          <mxGeometry x="324" y="196.5" width="79" height="80" as="geometry" />
        </mxCell>
        <mxCell id="t4ZX40rrtwbt4coiygym-2" value="" style="endArrow=classic;startArrow=classic;html=1;rounded=0;exitX=1;exitY=0.5;exitDx=0;exitDy=0;entryX=0;entryY=0.5;entryDx=0;entryDy=0;" parent="1" edge="1">
          <mxGeometry width="50" height="50" relative="1" as="geometry">
            <mxPoint x="403" y="236" as="sourcePoint" />
            <mxPoint x="485" y="236" as="targetPoint" />
          </mxGeometry>
        </mxCell>
        <mxCell id="stzLwv41HhVOiGjMC_Pm-1" value="Resolver" style="swimlane;html=1;fontStyle=0;childLayout=stackLayout;horizontal=1;startSize=26;fillColor=#e0e0e0;horizontalStack=0;resizeParent=1;resizeLast=0;collapsible=1;marginBottom=0;swimlaneFillColor=#ffffff;align=center;rounded=1;shadow=0;comic=0;labelBackgroundColor=none;strokeWidth=1;fontFamily=Verdana;fontSize=12" parent="1" vertex="1">
          <mxGeometry x="459.5" y="-22" width="209" height="110" as="geometry" />
        </mxCell>
        <mxCell id="stzLwv41HhVOiGjMC_Pm-2" value="" style="strokeWidth=1;html=1;shape=mxgraph.flowchart.annotation_2;align=left;labelPosition=right;pointerEvents=1;rotation=90;" parent="1" vertex="1">
          <mxGeometry x="688.75" y="-467.25" width="41.5" height="267" as="geometry" />
        </mxCell>
        <mxCell id="stzLwv41HhVOiGjMC_Pm-3" style="edgeStyle=none;html=1;labelBackgroundColor=none;startFill=0;startSize=8;endFill=1;endSize=8;fontFamily=Verdana;fontSize=12;exitX=1;exitY=1;exitDx=0;exitDy=0;entryX=0.551;entryY=-0.019;entryDx=0;entryDy=0;entryPerimeter=0;exitPerimeter=0;" parent="1" source="stzLwv41HhVOiGjMC_Pm-2" target="stzLwv41HhVOiGjMC_Pm-1" edge="1">
          <mxGeometry relative="1" as="geometry">
            <mxPoint x="575.5" y="-198" as="sourcePoint" />
            <mxPoint x="575" y="-146" as="targetPoint" />
          </mxGeometry>
        </mxCell>
        <mxCell id="stzLwv41HhVOiGjMC_Pm-5" value="Gelato Msg Sender" style="swimlane;html=1;fontStyle=0;childLayout=stackLayout;horizontal=1;startSize=26;fillColor=#e0e0e0;horizontalStack=0;resizeParent=1;resizeLast=0;collapsible=1;marginBottom=0;swimlaneFillColor=#ffffff;align=center;rounded=1;shadow=0;comic=0;labelBackgroundColor=none;strokeWidth=1;fontFamily=Verdana;fontSize=12" parent="1" vertex="1">
          <mxGeometry x="734.5" y="-297" width="209" height="110" as="geometry" />
        </mxCell>
        <mxCell id="stzLwv41HhVOiGjMC_Pm-7" value="" style="endArrow=classic;html=1;rounded=0;entryX=0.661;entryY=0.111;entryDx=0;entryDy=0;entryPerimeter=0;" parent="1" edge="1">
          <mxGeometry width="50" height="50" relative="1" as="geometry">
            <mxPoint x="842.88" y="-320.81" as="sourcePoint" />
            <mxPoint x="842.8249999999999" y="-296.9999999999999" as="targetPoint" />
          </mxGeometry>
        </mxCell>
        <mxCell id="8cZj9O0Ab_hHfe_6Ndu2-4" value="" style="endArrow=classic;html=1;rounded=0;entryX=0;entryY=0.5;entryDx=0;entryDy=0;" parent="1" target="byzspxksrCd8A4GHxwi9-18" edge="1">
          <mxGeometry width="50" height="50" relative="1" as="geometry">
            <mxPoint x="869" y="385" as="sourcePoint" />
            <mxPoint x="1139" y="264" as="targetPoint" />
          </mxGeometry>
        </mxCell>
        <mxCell id="8cZj9O0Ab_hHfe_6Ndu2-6" value="StrategyManager" style="swimlane;html=1;fontStyle=0;childLayout=stackLayout;horizontal=1;startSize=26;fillColor=#e0e0e0;horizontalStack=0;resizeParent=1;resizeLast=0;collapsible=1;marginBottom=0;swimlaneFillColor=#ffffff;align=center;rounded=1;shadow=0;comic=0;labelBackgroundColor=none;strokeWidth=1;fontFamily=Verdana;fontSize=12" parent="1" vertex="1">
          <mxGeometry x="1312" y="80" width="160" height="110" as="geometry" />
        </mxCell>
        <mxCell id="8cZj9O0Ab_hHfe_6Ndu2-7" value="PriceFeedsDataConsumer" style="swimlane;html=1;fontStyle=0;childLayout=stackLayout;horizontal=1;startSize=26;fillColor=#e0e0e0;horizontalStack=0;resizeParent=1;resizeLast=0;collapsible=1;marginBottom=0;swimlaneFillColor=#ffffff;align=center;rounded=1;shadow=0;comic=0;labelBackgroundColor=none;strokeWidth=1;fontFamily=Verdana;fontSize=12" parent="1" vertex="1">
          <mxGeometry x="1529" y="80" width="160" height="110" as="geometry" />
        </mxCell>
        <mxCell id="8cZj9O0Ab_hHfe_6Ndu2-8" value="" style="endArrow=classic;html=1;rounded=0;exitX=0;exitY=0.5;exitDx=0;exitDy=0;entryX=1;entryY=0.5;entryDx=0;entryDy=0;" parent="1" source="8cZj9O0Ab_hHfe_6Ndu2-7" target="8cZj9O0Ab_hHfe_6Ndu2-6" edge="1">
          <mxGeometry width="50" height="50" relative="1" as="geometry">
            <mxPoint x="1023" y="171" as="sourcePoint" />
            <mxPoint x="1463" y="135" as="targetPoint" />
          </mxGeometry>
        </mxCell>
        <mxCell id="8cZj9O0Ab_hHfe_6Ndu2-9" value="" style="endArrow=none;html=1;rounded=0;exitX=0;exitY=0.5;exitDx=0;exitDy=0;" parent="1" source="8cZj9O0Ab_hHfe_6Ndu2-6" edge="1">
          <mxGeometry width="50" height="50" relative="1" as="geometry">
            <mxPoint x="1023" y="171" as="sourcePoint" />
            <mxPoint x="1276" y="135" as="targetPoint" />
          </mxGeometry>
        </mxCell>
        <mxCell id="8cZj9O0Ab_hHfe_6Ndu2-11" value="" style="endArrow=none;html=1;rounded=0;" parent="1" edge="1">
          <mxGeometry width="50" height="50" relative="1" as="geometry">
            <mxPoint x="1276" y="231" as="sourcePoint" />
            <mxPoint x="1276" y="33" as="targetPoint" />
          </mxGeometry>
        </mxCell>
        <mxCell id="8cZj9O0Ab_hHfe_6Ndu2-12" value="" style="endArrow=classic;html=1;rounded=0;entryX=1;entryY=0.5;entryDx=0;entryDy=0;" parent="1" target="byzspxksrCd8A4GHxwi9-14" edge="1">
          <mxGeometry width="50" height="50" relative="1" as="geometry">
            <mxPoint x="1276" y="33" as="sourcePoint" />
            <mxPoint x="1194" y="110" as="targetPoint" />
          </mxGeometry>
        </mxCell>
        <mxCell id="8cZj9O0Ab_hHfe_6Ndu2-13" value="" style="endArrow=classic;html=1;rounded=0;entryX=1;entryY=0.5;entryDx=0;entryDy=0;" parent="1" edge="1">
          <mxGeometry width="50" height="50" relative="1" as="geometry">
            <mxPoint x="1275" y="230" as="sourcePoint" />
            <mxPoint x="1215" y="230" as="targetPoint" />
          </mxGeometry>
        </mxCell>
        <mxCell id="8cZj9O0Ab_hHfe_6Ndu2-14" value="" style="endArrow=none;html=1;rounded=0;" parent="1" edge="1">
          <mxGeometry width="50" height="50" relative="1" as="geometry">
            <mxPoint x="869" y="385" as="sourcePoint" />
            <mxPoint x="869" y="292" as="targetPoint" />
          </mxGeometry>
        </mxCell>
        <mxCell id="8cZj9O0Ab_hHfe_6Ndu2-15" value="PriceFeeds" style="swimlane;html=1;fontStyle=0;childLayout=stackLayout;horizontal=1;startSize=26;fillColor=#e0e0e0;horizontalStack=0;resizeParent=1;resizeLast=0;collapsible=1;marginBottom=0;swimlaneFillColor=#ffffff;align=center;rounded=1;shadow=0;comic=0;labelBackgroundColor=none;strokeWidth=1;fontFamily=Verdana;fontSize=12" parent="1" vertex="1">
          <mxGeometry x="1783" y="81" width="160" height="110" as="geometry" />
        </mxCell>
        <mxCell id="8cZj9O0Ab_hHfe_6Ndu2-16" value="" style="endArrow=classic;html=1;rounded=0;entryX=1;entryY=0.5;entryDx=0;entryDy=0;dashed=1;" parent="1" target="8cZj9O0Ab_hHfe_6Ndu2-7" edge="1">
          <mxGeometry width="50" height="50" relative="1" as="geometry">
            <mxPoint x="1782" y="135" as="sourcePoint" />
            <mxPoint x="1725" y="132" as="targetPoint" />
          </mxGeometry>
        </mxCell>
        <mxCell id="8cZj9O0Ab_hHfe_6Ndu2-18" value="&lt;font style=&quot;font-size: 12px;&quot;&gt;1&lt;/font&gt;" style="text;html=1;strokeColor=none;fillColor=none;spacingLeft=4;spacingRight=4;whiteSpace=wrap;overflow=hidden;rotatable=0;points=[[0,0.5],[1,0.5]];portConstraint=eastwest;fontSize=12;" parent="1" vertex="1">
          <mxGeometry x="1691" y="113" width="22" height="22" as="geometry" />
        </mxCell>
        <mxCell id="8cZj9O0Ab_hHfe_6Ndu2-19" value="&lt;font style=&quot;font-size: 13px;&quot;&gt;n&lt;/font&gt;" style="text;html=1;strokeColor=none;fillColor=none;spacingLeft=4;spacingRight=4;whiteSpace=wrap;overflow=hidden;rotatable=0;points=[[0,0.5],[1,0.5]];portConstraint=eastwest;fontSize=13;" parent="1" vertex="1">
          <mxGeometry x="1760" y="112" width="22" height="22" as="geometry" />
        </mxCell>
        <mxCell id="Sr29j1n1-mR2mdG0OjLU-2" value="" style="endArrow=none;html=1;rounded=0;" edge="1" parent="1">
          <mxGeometry width="50" height="50" relative="1" as="geometry">
            <mxPoint x="1111" y="143" as="sourcePoint" />
            <mxPoint x="1111" y="88" as="targetPoint" />
          </mxGeometry>
        </mxCell>
        <mxCell id="Sr29j1n1-mR2mdG0OjLU-3" value="" style="endArrow=none;html=1;rounded=0;" edge="1" parent="1">
          <mxGeometry width="50" height="50" relative="1" as="geometry">
            <mxPoint x="572" y="143" as="sourcePoint" />
            <mxPoint x="1111" y="143" as="targetPoint" />
          </mxGeometry>
        </mxCell>
        <mxCell id="Sr29j1n1-mR2mdG0OjLU-4" value="" style="endArrow=classic;html=1;rounded=0;entryX=0.111;entryY=0.611;entryDx=0;entryDy=0;entryPerimeter=0;" edge="1" parent="1" target="byzspxksrCd8A4GHxwi9-50">
          <mxGeometry width="50" height="50" relative="1" as="geometry">
            <mxPoint x="572" y="142" as="sourcePoint" />
            <mxPoint x="594" y="92" as="targetPoint" />
          </mxGeometry>
        </mxCell>
      </root>
    </mxGraphModel>
  </diagram>
</mxfile>
